<svg id="_0197_adventure" xmlns="http://www.w3.org/2000/svg" xmlns:xlink="http://www.w3.org/1999/xlink" viewBox="0 0 500 500" data-imageid="adventure-85" imageName="Adventure" class="illustrations_image" style="width: 162px;" _mstHidden="4"><defs><style>.cls-1_adventure-85{fill:url(#linear-gradient);}.cls-1_adventure-85,.cls-2_adventure-85,.cls-3_adventure-85,.cls-4_adventure-85,.cls-5_adventure-85,.cls-6_adventure-85,.cls-7_adventure-85,.cls-8_adventure-85,.cls-9_adventure-85,.cls-10_adventure-85,.cls-11_adventure-85,.cls-12_adventure-85,.cls-13_adventure-85,.cls-14_adventure-85,.cls-15_adventure-85,.cls-16_adventure-85,.cls-17_adventure-85,.cls-18_adventure-85,.cls-19_adventure-85,.cls-20_adventure-85,.cls-21_adventure-85,.cls-22_adventure-85,.cls-23_adventure-85,.cls-24_adventure-85{stroke-width:0px;}.cls-2_adventure-85{fill:url(#linear-gradient-11-adventure-85);}.cls-3_adventure-85{fill:url(#linear-gradient-12-adventure-85);}.cls-4_adventure-85{fill:url(#linear-gradient-13-adventure-85);}.cls-5_adventure-85{fill:url(#linear-gradient-10-adventure-85);}.cls-6_adventure-85{fill:url(#linear-gradient-17-adventure-85);}.cls-7_adventure-85{fill:url(#linear-gradient-16-adventure-85);}.cls-8_adventure-85{fill:url(#linear-gradient-19-adventure-85);}.cls-9_adventure-85{fill:url(#linear-gradient-15-adventure-85);}.cls-10_adventure-85{fill:url(#linear-gradient-18-adventure-85);}.cls-11_adventure-85{fill:url(#linear-gradient-14-adventure-85);}.cls-12_adventure-85{fill:url(#linear-gradient-20-adventure-85);}.cls-13_adventure-85{fill:url(#linear-gradient-4-adventure-85);}.cls-14_adventure-85{fill:url(#linear-gradient-2-adventure-85);}.cls-15_adventure-85{fill:url(#linear-gradient-3-adventure-85);}.cls-16_adventure-85{fill:url(#linear-gradient-8-adventure-85);}.cls-17_adventure-85{fill:url(#linear-gradient-9-adventure-85);}.cls-18_adventure-85{fill:url(#linear-gradient-7-adventure-85);}.cls-19_adventure-85{fill:url(#linear-gradient-5-adventure-85);}.cls-20_adventure-85{fill:url(#linear-gradient-6-adventure-85);}.cls-21_adventure-85{isolation:isolate;opacity:.24;}.cls-21_adventure-85,.cls-24_adventure-85{fill:#68e1fd;}.cls-22_adventure-85{fill:#606161;}.cls-23_adventure-85{fill:#ffb4a3;}</style><linearGradient id="linear-gradient-adventure-85" x1="246.03" y1="2634.83" x2="318.47" y2="2634.83" gradientTransform="translate(-86.66 2990.64) scale(1 -1)" gradientUnits="userSpaceOnUse"><stop offset="0" stop-color="#010101" stop-opacity="0"/><stop offset=".95" stop-color="#010101"/></linearGradient><linearGradient id="linear-gradient-2-adventure-85" x1="301.13" y1="2647.13" x2="377.13" y2="2654.28" xlink:href="#linear-gradient-adventure-85"/><linearGradient id="linear-gradient-3-adventure-85" x1="405.89" y1="2889.88" x2="325.42" y2="2860.38" xlink:href="#linear-gradient-adventure-85"/><linearGradient id="linear-gradient-4-adventure-85" x1="346.83" y1="2857.08" x2="272.33" y2="2865.72" xlink:href="#linear-gradient-adventure-85"/><linearGradient id="linear-gradient-5-adventure-85" x1="252.95" y1="2882.27" x2="326.1" y2="2882.27" gradientTransform="translate(-86.66 2990.64) scale(1 -1)" gradientUnits="userSpaceOnUse"><stop offset="0" stop-color="#fff" stop-opacity="0"/><stop offset=".95" stop-color="#fff"/></linearGradient><linearGradient id="linear-gradient-6-adventure-85" x1="353.91" y1="2768.97" x2="80.33" y2="2722.48" xlink:href="#linear-gradient-adventure-85"/><linearGradient id="linear-gradient-7-adventure-85" x1="348.52" y1="2833.74" x2="352.54" y2="2692.48" xlink:href="#linear-gradient-adventure-85"/><linearGradient id="linear-gradient-8-adventure-85" x1="264.38" y1="2883.88" x2="308.62" y2="2883.88" xlink:href="#linear-gradient-adventure-85"/><linearGradient id="linear-gradient-9-adventure-85" x1="253.65" y1="2895.2" x2="287.87" y2="2895.2" xlink:href="#linear-gradient-adventure-85"/><linearGradient id="linear-gradient-10-adventure-85" x1="303.1" y1="2758.06" x2="108.79" y2="2694.88" xlink:href="#linear-gradient-adventure-85"/><linearGradient id="linear-gradient-11-adventure-85" x1="170.05" y1="2681.92" x2="559.86" y2="2866.69" xlink:href="#linear-gradient-adventure-85"/><linearGradient id="linear-gradient-12-adventure-85" x1="246.82" y1="2692.35" x2="294.66" y2="2692.35" xlink:href="#linear-gradient-adventure-85"/><linearGradient id="linear-gradient-13-adventure-85" x1="249.46" y1="2766.89" x2="164.08" y2="2833.94" xlink:href="#linear-gradient-adventure-85"/><linearGradient id="linear-gradient-14-adventure-85" x1="247.48" y1="2728.31" x2="291.29" y2="2663.34" xlink:href="#linear-gradient-adventure-85"/><linearGradient id="linear-gradient-15-adventure-85" x1="229.73" y1="2669.93" x2="194.41" y2="2736.09" xlink:href="#linear-gradient-adventure-85"/><linearGradient id="linear-gradient-16-adventure-85" x1="378.54" y1="2812.75" x2="408.66" y2="2812.75" xlink:href="#linear-gradient-5-adventure-85"/><linearGradient id="linear-gradient-17-adventure-85" x1="185.41" y1="2727.12" x2="275.63" y2="2714.17" xlink:href="#linear-gradient-adventure-85"/><linearGradient id="linear-gradient-18-adventure-85" x1="552.76" y1="2750.7" x2="463.35" y2="2440.16" xlink:href="#linear-gradient-adventure-85"/><linearGradient id="linear-gradient-19-adventure-85" x1="485.96" y1="2695.27" x2="328.61" y2="2368.04" xlink:href="#linear-gradient-adventure-85"/><linearGradient id="linear-gradient-20-adventure-85" x1="153.73" y1="2692.86" x2="11.88" y2="2409.15" xlink:href="#linear-gradient-adventure-85"/></defs><g id="background_adventure-85"><path class="cls-21_adventure-85 targetColor" d="M456.79,409.01c-.76.38-1.53.76-2.29,1.11-14.7,6.7-31.21,8.16-47.38,8.25-70.75.51-141.08-22.51-211.38-14.13-43.53,5.18-91.39,21.44-128.44-1.96-17.37-10.99-28.9-29.06-38.55-47.22-12.46-23.43-23.1-49.37-20.43-75.79.33-3.28.87-6.53,1.62-9.73,6.17-27.49,25.72-50.99,46.3-70.84,22.96-22.2,48.67-42.68,63.98-70.65,12.17-22.11,17.56-48.43,35.09-66.56,49.31-51.11,162.54-20.79,214.3,10.83,33.5,20.48,60.62,53.31,68.53,91.77,4.87,23.79,2.43,48.84,9.39,72.12,10.96,36.86,44.33,65.79,47.66,104.08,2.41,27.74-13.6,56.16-38.41,68.74Z" style="fill: rgb(104, 225, 253);"/><path class="cls-21_adventure-85 targetColor" d="M456.79,409.01c-.76.38-1.53.76-2.29,1.11-14.7,6.7-31.21,8.16-47.38,8.25-70.75.51-141.08-22.51-211.38-14.13-43.53,5.18-91.39,21.44-128.44-1.96-17.37-10.99-28.9-29.06-38.55-47.22-12.46-23.43-23.1-49.37-20.43-75.79.33-3.28.87-6.53,1.62-9.73,1.01-.4,2.05-.74,3.1-1.02,23.27-6.41,52.17.89,67.6,19.66,9.97,12.17,14.68,27.66,21.15,42.01s16.1,28.73,30.96,33.88c24.34,8.41,50.94-11.11,75.96-5.27,14.23,3.37,25.38,14.39,39.06,19.53,39.85,15.02,86.49-23.12,125.23-5.37,4.45,2.04,8.61,4.79,13.28,6.16,5.87,1.75,12.1,1.24,18.22,1.12,9.77-.22,19.54.53,29.16,2.25,5.01.92,10.22,2.22,13.84,5.78,2.6,2.54,4.1,6,5.4,9.39,1.46,3.71,2.77,7.52,3.89,11.37Z" style="fill: rgb(104, 225, 253);"/></g><g id="character_adventure-85"><path class="cls-22_adventure-85" d="M163.3,344.39c3.94,13.3,11.62,25.7,12.4,39.54.36,6.32-3,18.04-4.11,24.26,12.29,1.96,27.11-3.39,39.43-5.16,1.86-.27,3.8-.62,5.26-1.79s2.19-2.92,2.87-4.63c9.86-24.89,14.04-51.66,12.25-78.37-.28-4.11-.72-8.28-2.23-12.12-.29-.95-.85-1.8-1.62-2.43-.99-.53-2.12-.76-3.24-.65l-30.69.17c-9.33.05-24.05-.19-31.02,7.41-6.38,6.89-1.7,25.65.71,33.77Z"/><path class="cls-1_adventure-85" d="M163.3,344.39c3.94,13.3,11.62,25.7,12.4,39.54.36,6.32-3,18.04-4.11,24.26,12.29,1.96,27.11-3.39,39.43-5.16,1.86-.27,3.8-.62,5.26-1.79s2.19-2.92,2.87-4.63c9.86-24.89,14.04-51.66,12.25-78.37-.28-4.11-.72-8.28-2.23-12.12-.29-.95-.85-1.8-1.62-2.43-.99-.53-2.12-.76-3.24-.65l-30.69.17c-9.33.05-24.05-.19-31.02,7.41-6.38,6.89-1.7,25.65.71,33.77Z"/><path class="cls-22_adventure-85" d="M255.37,338.12c-1.02,19.77-.75,39.58.81,59.31.18,1,.06,2.02-.32,2.95-.86,1.62-3.02,1.87-4.87,1.92-10.92.3-21.85.18-32.78-.38-2.27.25-4.37-1.25-4.87-3.49-2.8-6.3-5.18-12.88-9.24-18.46-4.98-6.87-12.17-11.8-17.69-18.24-8-9.37-12.07-21.52-14.04-33.67-.52-3.19-.81-6.81,1.23-9.31,1.81-2.23,4.87-2.87,7.66-3.6,9.73-2.56,18.48-7.84,27.08-13.05,6.9-4.19,13.86-8.39,20.01-13.64,5.01-4.28,10.03-12.08,17.69-9.18,4.75,1.79,4.91,5.82,4.87,10.34,0,6.49-.32,12.1,1.53,18.41,3.08,10.25,3.48,19.49,2.94,30.12Z"/><path class="cls-14_adventure-85" d="M255.37,338.12c-1.02,19.77-.75,39.58.81,59.31.18,1,.06,2.02-.32,2.95-.86,1.62-3.02,1.87-4.87,1.92-10.92.3-21.85.18-32.78-.38-2.27.25-4.37-1.25-4.87-3.49-2.8-6.3-5.18-12.88-9.24-18.46-4.98-6.87-12.17-11.8-17.69-18.24-8-9.37-12.07-21.52-14.04-33.67-.52-3.19-.81-6.81,1.23-9.31,1.81-2.23,4.87-2.87,7.66-3.6,9.73-2.56,18.48-7.84,27.08-13.05,6.9-4.19,13.86-8.39,20.01-13.64,5.01-4.28,10.03-12.08,17.69-9.18,4.75,1.79,4.91,5.82,4.87,10.34,0,6.49-.32,12.1,1.53,18.41,3.08,10.25,3.48,19.49,2.94,30.12Z"/><path class="cls-23_adventure-85" d="M238.32,107.4c1.93,0,3.82.6,5.39,1.73.84.7,1.53,1.56,2.04,2.52,2.82,5.14,1.78,11.69,4.45,16.91.71,1.38,1.7,2.79,1.46,4.32-.21,1.37-1.35,2.39-1.96,3.63-1.12,2.29-.35,5.05-.97,7.51-.39,1.35-1.04,2.62-1.92,3.72-1.19,1.74-2.76,3.19-4.58,4.25-1.85,1.06-4.05,1.31-6.09.71-2.21-.75-3.8-2.64-5.22-4.48-1.46-1.73-2.66-3.66-3.58-5.74-1.41-3.54-1.25-7.48-1.05-11.28.39-7.84.84-24.32,12.03-23.79Z"/><path class="cls-22_adventure-85" d="M252.22,105.85c-.19.2-.41.37-.65.51-.33.13-.68.18-1.04.16-1.94.01-3.88.17-5.79.47-.33.02-.64.13-.91.32-.26.3-.41.67-.44,1.06-.57,3.53-.73,7.1-.49,10.67.08,1.14.28,2.43,1.21,3.08.75.42,1.62.59,2.47.49l2.98-.06c.25-.03.5.02.72.14.31.19.37.61.46.97.51,2.21,2.55,3.79,4.7,4.5s4.46.74,6.72.95c7.12.68,13.95,3.3,21.09,3.98,1.14.25,2.33-.08,3.17-.88l4.36-3.43c.39-.35.84-.63,1.34-.81.41-.1.84-.13,1.27-.1,4.58.19,9.63.96,13.32-1.74,1.86-1.51,3.26-3.52,4.02-5.79.98-2.38,1.43-4.94,1.31-7.51-.27-3.52-1.92-6.79-4.58-9.1-.39-.37-.85-.66-1.35-.87-.59-.18-1.2-.26-1.81-.24l-15.11-.29c-7.35-.14-14.7-.28-22.05-.16-2.67-.03-5.34.33-7.91,1.06-2.52.76-4.96.7-7.01,2.63Z"/><path class="cls-15_adventure-85" d="M252.22,105.85c-.19.2-.41.37-.65.51-.33.13-.68.18-1.04.16-1.94.01-3.88.17-5.79.47-.33.02-.64.13-.91.32-.26.3-.41.67-.44,1.06-.57,3.53-.73,7.1-.49,10.67.08,1.14.28,2.43,1.21,3.08.75.42,1.62.59,2.47.49l2.98-.06c.25-.03.5.02.72.14.31.19.37.61.46.97.51,2.21,2.55,3.79,4.7,4.5s4.46.74,6.72.95c7.12.68,13.95,3.3,21.09,3.98,1.14.25,2.33-.08,3.17-.88l4.36-3.43c.39-.35.84-.63,1.34-.81.41-.1.84-.13,1.27-.1,4.58.19,9.63.96,13.32-1.74,1.86-1.51,3.26-3.52,4.02-5.79.98-2.38,1.43-4.94,1.31-7.51-.27-3.52-1.92-6.79-4.58-9.1-.39-.37-.85-.66-1.35-.87-.59-.18-1.2-.26-1.81-.24l-15.11-.29c-7.35-.14-14.7-.28-22.05-.16-2.67-.03-5.34.33-7.91,1.06-2.52.76-4.96.7-7.01,2.63Z"/><path class="cls-22_adventure-85" d="M241.81,97.53c3.63,7.88,2.55,17.04,2,25.66-.87,13.58-.23,27.22,1.92,40.66-4.42-3.8-10-6.04-15.7-7.3-5.69-1.27-11.54-1.54-17.36-1.83-1.24-.13-2.49-.07-3.72.19-3.2.81-5.15,4.06-6.22,7.2s-1.62,6.49-3.56,9.21l1.62-14.74c.25-1.21.14-2.48-.32-3.63-.52-.87-1.31-1.55-2.24-1.96-3.21-1.54-7-1.28-9.96.7-1.13-5.36,2.93-10.31,4.23-15.63.93-3.79.45-7.77.19-11.67-.44-5.98-.26-11.98.53-17.92.49-3.56,1.24-7.15,3.02-10.26,2.9-5.08,8.2-8.36,13.69-10.36,5.97-2.17,13.28-2.86,18.14,1.23,1.19,1.01,2.34,2.52,3.93,2.88,1.39.31,2.43,0,3.81.75,2.71,1.44,4.7,4.09,6,6.82Z"/><path class="cls-13_adventure-85" d="M241.81,97.53c3.63,7.88,2.55,17.04,2,25.66-.87,13.58-.23,27.22,1.92,40.66-4.42-3.8-10-6.04-15.7-7.3-5.69-1.27-11.54-1.54-17.36-1.83-1.24-.13-2.49-.07-3.72.19-3.2.81-5.15,4.06-6.22,7.2s-1.62,6.49-3.56,9.21l1.62-14.74c.25-1.21.14-2.48-.32-3.63-.52-.87-1.31-1.55-2.24-1.96-3.21-1.54-7-1.28-9.96.7-1.13-5.36,2.93-10.31,4.23-15.63.93-3.79.45-7.77.19-11.67-.44-5.98-.26-11.98.53-17.92.49-3.56,1.24-7.15,3.02-10.26,2.9-5.08,8.2-8.36,13.69-10.36,5.97-2.17,13.28-2.86,18.14,1.23,1.19,1.01,2.34,2.52,3.93,2.88,1.39.31,2.43,0,3.81.75,2.71,1.44,4.7,4.09,6,6.82Z"/><path class="cls-24_adventure-85 targetColor" d="M214.93,78.28l-7.69-6.03c-.87-.92-2.21-1.2-3.37-.72-7.72,1.96-15.23,5.34-21,10.82-8.11,7.71-12.1,18.81-14.73,29.71-.42,1.76-.81,3.66-.15,5.34.58,1.19,1.41,2.25,2.43,3.09l6.29,6.04c.48.38.83.89,1.02,1.47.07.67-.1,1.34-.47,1.9-1.18,2.21-2.81,4.16-4.06,6.33s-2.19,4.71-1.74,7.18c.62,3.09,3.18,5.41,6.31,5.73,2.17.18,4.29-.67,6.29-1.56,14.57-6.58,27.24-16.74,36.82-29.54,5.14-6.9,9.32-14.47,13.26-22.13,2.28-4.45,4.5-8.97,5.78-13.79.94-3.08,1.12-6.33.52-9.49-.09-.57-.34-1.1-.72-1.53-.55-.43-1.22-.67-1.91-.69-6.3-.68-12.59,1.45-17.17,5.84-.9,1.02-2.09,1.74-3.42,2.03-.66.14-1.74.41-2.27.02Z" style="fill: rgb(104, 225, 253);"/><path class="cls-19_adventure-85" d="M213.6,76.94l-7.69-6.03c-.44-.4-.97-.7-1.54-.88-.62-.09-1.25-.04-1.84.15-7.71,1.95-15.23,5.33-20.99,10.81-8.11,7.72-12.1,18.82-14.73,29.72-.42,1.76-.81,3.65-.15,5.34.58,1.19,1.41,2.24,2.43,3.08l6.29,6.04c.48.38.84.89,1.02,1.47.08.67-.09,1.34-.46,1.9-1.18,2.21-2.81,4.17-4.06,6.34s-2.19,4.7-1.74,7.17c.62,3.08,3.17,5.41,6.3,5.74,2.18.18,4.3-.67,6.3-1.56,14.57-6.57,27.24-16.74,36.81-29.54,5.15-6.9,9.33-14.47,13.26-22.13,2.28-4.45,4.5-8.97,5.78-13.79.94-3.07,1.12-6.33.52-9.48-.09-.57-.34-1.1-.71-1.53-.55-.43-1.22-.68-1.92-.7-6.29-.65-12.54,1.5-17.11,5.87-.91,1.04-2.14,1.74-3.5,2.02-.65.1-1.74.41-2.26,0Z"/><path class="cls-24_adventure-85 targetColor" d="M170.61,185.81c-.42,27.02-1.01,54.15-5.22,80.84-1.77,11.22-4.18,22.67-2.03,33.82.57,5.83,4.48,10.8,10.03,12.7,4.46,1.9,9.11,3.29,13.88,4.15,6.73,1.36,13.72,2.24,20.44.81,13.96-2.94,24.2-15.24,29.92-28.3,1.2-2.74,3.36-6.14,6.23-5.29,3.51,1.04,2.93,7.16,6.34,8.49,3.4-8.32-1.31-17.56-1.77-26.53-.51-10.04,4.37-19.47,8.62-28.59,4.24-9.12,8.05-19.36,5.31-29.03-1.19-4.23-3.57-8.02-4.99-12.17-2.04-5.92-2.07-12.36-3.78-18.38-3.31-11.7-12.91-20.99-24.09-25.76-10.66-4.55-27.7-7.61-39.13-3.89-17.12,5.61-19.5,21.2-19.75,37.12Z" style="fill: rgb(104, 225, 253);"/><path class="cls-20_adventure-85" d="M170.61,185.81c-.42,27.02-1.01,54.15-5.22,80.84-1.77,11.22-4.18,22.67-2.03,33.82.57,5.83,4.48,10.8,10.03,12.7,4.46,1.9,9.11,3.29,13.88,4.15,6.73,1.36,13.72,2.24,20.44.81,13.96-2.94,24.2-15.24,29.92-28.3,1.2-2.74,3.36-6.14,6.23-5.29,3.51,1.04,2.93,7.16,6.34,8.49,3.4-8.32-1.31-17.56-1.77-26.53-.51-10.04,4.37-19.47,8.62-28.59,4.24-9.12,8.05-19.36,5.31-29.03-1.19-4.23-3.57-8.02-4.99-12.17-2.04-5.92-2.07-12.36-3.78-18.38-3.31-11.7-12.91-20.99-24.09-25.76-10.66-4.55-27.7-7.61-39.13-3.89-17.12,5.61-19.5,21.2-19.75,37.12Z"/><path class="cls-24_adventure-85 targetColor" d="M227.21,153.97c-4.39-.75-9.43-1.12-12.74,1.85-1.44,1.4-2.49,3.15-3.07,5.07-2.49,7.13-1.48,15.25,2.04,21.9,3.51,6.65,9.38,11.98,16.06,15.5,9.27,4.94,20.03,6.32,30.24,3.87,7.48-1.89,14.33-5.92,21.9-7.47,9.93-2.04,21.14.15,29.61-5.44.92-.55,1.72-1.29,2.34-2.16.63-1.02,1.01-2.17,1.1-3.37.68-6.22-2.98-12.17-7.3-16.64-1.12-1.29-2.5-2.32-4.06-3.03-1.41-.47-2.9-.68-4.39-.62-8.68-.08-17.33,1.08-26.01,1.09-6.22,0-12.53-.59-18.44-2.61-2.43-.81-4.58-2.08-6.94-2.96-2.96-1.04-5.97-1.92-9.02-2.63-3.77-.94-7.55-1.73-11.33-2.37Z" style="fill: rgb(104, 225, 253);"/><path class="cls-18_adventure-85" d="M227.21,153.97c-4.39-.75-9.43-1.12-12.74,1.85-1.44,1.4-2.49,3.15-3.07,5.07-2.49,7.13-1.48,15.25,2.04,21.9,3.51,6.65,9.38,11.98,16.06,15.5,9.27,4.94,20.03,6.32,30.24,3.87,7.48-1.89,14.33-5.92,21.9-7.47,9.93-2.04,21.14.15,29.61-5.44.92-.55,1.72-1.29,2.34-2.16.63-1.02,1.01-2.17,1.1-3.37.68-6.22-2.98-12.17-7.3-16.64-1.12-1.29-2.5-2.32-4.06-3.03-1.41-.47-2.9-.68-4.39-.62-8.68-.08-17.33,1.08-26.01,1.09-6.22,0-12.53-.59-18.44-2.61-2.43-.81-4.58-2.08-6.94-2.96-2.96-1.04-5.97-1.92-9.02-2.63-3.77-.94-7.55-1.73-11.33-2.37Z"/><path class="cls-23_adventure-85" d="M263.93,126.63c-.07.36-.01.73.16,1.05.24.28.57.47.94.52,2.43.58,4.92-.45,7.37-1,3.69-.81,7.53-.49,11.29-.18.72-.04,1.39.41,1.62,1.1,4.28,7.45,8.67,15.26,9.11,23.84-.01,1.93.1,3.86.33,5.78,1.09,5.98,6.24,10.18,10.19,14.79,1.92,2.25,3.64,4.71,5.95,6.56s5.4,3.03,8.23,2.2c3.17-.92,5.22-4.18,5.72-7.44.5-3.26-.24-6.58-.97-9.8-1.5-6.6-3.03-13.26-5.93-19.36-4.15-8.72-10.87-15.89-16.41-23.79-3.82-5.44-7.1-11.25-9.78-17.34-.58-1.34-1.2-2.76-2.43-3.59-2.68-1.84-6.38.28-9.56-.44-2.2-.5-3.85-2.3-5.86-3.33s-5.15-.74-5.68,1.44c-2.85-.26-5.71.45-8.11,2.02-.32.21-.67.51-.66.89s.34.61.63.81c4.7,3.36,9.97,8.4,12.21,13.85,2.29,5.62-7.71,5.68-8.39,11.4Z"/><path class="cls-22_adventure-85" d="M187.8,137.37c6.77-4.06,13.63-8.24,18.96-14.07,5.33-5.83,8.87-13.1,11.6-20.52,1.98-5.35,3.59-10.94,3.6-16.64,0-1.57.1-.71-.53-2.14-1.39-3.24-6.3-6.41-9.5-7.83,2.72,5.28,1.58,10.73-1.16,16.01-3.85,7.35-8.4,14.39-14.39,20.13-2.43,2.35-18.66,15.02-18.66,15.02,0,.68,6.78,7.33,10.08,10.06Z"/><path class="cls-16_adventure-85" d="M187.8,137.37c6.77-4.06,13.63-8.24,18.96-14.07,5.33-5.83,8.87-13.1,11.6-20.52,1.98-5.35,3.59-10.94,3.6-16.64,0-1.57.1-.71-.53-2.14-1.39-3.24-6.3-6.41-9.5-7.83,2.72,5.28,1.58,10.73-1.16,16.01-3.85,7.35-8.4,14.39-14.39,20.13-2.43,2.35-18.66,15.02-18.66,15.02,0,.68,6.78,7.33,10.08,10.06Z"/><path class="cls-17_adventure-85" d="M199.04,84.52c-5.48,13.04-13.74,25.7-26.29,32.24-1.22.63-2.64,1.21-3.91.68-1.22-.63-1.94-1.93-1.83-3.3.13-1.34.53-2.64,1.17-3.82l4.87-10.65c2.78-6.06,5.61-12.17,9.95-17.26,3.42-4,7.96-7.3,13.13-8.62,2.43-.61,4.32-1.26,4.92,1.52.67,2.96-.88,6.56-2,9.22Z"/><path class="cls-24_adventure-85 targetColor" d="M185.83,176.98c-.54.63-.87,1.42-.93,2.25,0,1.12.9,2,1.68,2.81,9.08,9.55,9,24.23,9.73,37.39.74,13.92,2.94,27.72,5.14,41.49.64,4,1.35,8.17,3.76,11.43,4.53,6.16,13.37,7.03,19.59,11.48,1.73,1.23,3.34,2.9,3.71,5.01s-.64,4.36-1.62,6.34l-10.39,20.72c-1.27,2.84-2.9,5.49-4.87,7.9-2.09,2.19-4.5,4.06-7.14,5.55-13.69,8.41-29.46,14.28-45.5,13.54-16.05-.74-32.27-8.92-39.86-23.1-5.44-10.14-6.08-22.15-5.48-33.65.61-11.5,2.35-23.01,1.2-34.46-.63-6.29-2.14-12.53-1.87-18.85.37-8.68,4.06-16.83,7.66-24.74,2.26-4.94,4.56-9.94,7.99-14.15,3.82-4.68,9-8.35,11.74-13.73.9-1.78,1.62-3.85,3.4-4.77,1.16-.49,2.43-.69,3.68-.57,6.32.09,13.47-.08,17.75-4.73,3.24-3.56,3.89-8.75,5.61-13.27,1.73-4.53,6-9.07,10.68-7.81-1.54,7.09-2.13,14.35-1.75,21.6,7.59-5.35,13.58-12.75,21.27-17.97,5.01-3.4,12.24-6.54,18.46-5.45,8.66,1.52,3.59,5.83-1.5,7.83-12.18,4.75-24.49,10.98-32.13,21.94Z" style="fill: rgb(104, 225, 253);"/><path class="cls-5_adventure-85" d="M185.83,176.98c-.54.63-.87,1.42-.93,2.25,0,1.12.9,2,1.68,2.81,9.08,9.55,9,24.23,9.73,37.39.74,13.92,2.94,27.72,5.14,41.49.64,4,1.35,8.17,3.76,11.43,4.53,6.16,13.37,7.03,19.59,11.48,1.73,1.23,3.34,2.9,3.71,5.01s-.64,4.36-1.62,6.34l-10.39,20.72c-1.27,2.84-2.9,5.49-4.87,7.9-2.09,2.19-4.5,4.06-7.14,5.55-13.69,8.41-29.46,14.28-45.5,13.54-16.05-.74-32.27-8.92-39.86-23.1-5.44-10.14-6.08-22.15-5.48-33.65.61-11.5,2.35-23.01,1.2-34.46-.63-6.29-2.14-12.53-1.87-18.85.37-8.68,4.06-16.83,7.66-24.74,2.26-4.94,4.56-9.94,7.99-14.15,3.82-4.68,9-8.35,11.74-13.73.9-1.78,1.62-3.85,3.4-4.77,1.16-.49,2.43-.69,3.68-.57,6.32.09,13.47-.08,17.75-4.73,3.24-3.56,3.89-8.75,5.61-13.27,1.73-4.53,6-9.07,10.68-7.81-1.54,7.09-2.13,14.35-1.75,21.6,7.59-5.35,13.58-12.75,21.27-17.97,5.01-3.4,12.24-6.54,18.46-5.45,8.66,1.52,3.59,5.83-1.5,7.83-12.18,4.75-24.49,10.98-32.13,21.94Z"/><path class="cls-2_adventure-85" d="M165.72,224.26c.87-5.87,2.65-11.55,4.44-17.21l5.1-16.22c.42-1.34.95-2.81,2.21-3.43,1.84-.92,3.98.54,5.36,2.06,10.02,10.95,9.73,27.43,10.96,42.18,1.39,16.98,6.33,35.05,19.78,45.5,5.54,4.32,13.08,8.44,13.04,15.47,0,3.42-1.96,6.49-3.85,9.34l-8.99,13.63c-4.79,7.26-10.62,15.21-19.24,16.34-2.59.44-5.26-.14-7.43-1.62-2.6-1.97-3.59-5.35-4.45-8.5-8.37-30.96-21.02-64.93-16.94-97.53Z"/><path class="cls-24_adventure-85 targetColor" d="M168.06,322.35c.48,1.21,1.21,2.29,2.15,3.19,2.2,1.82,5.47,1.27,8.19.41,5.01-1.72,9.89-3.8,14.6-6.23,3.34-1.52,6.54-3.3,9.59-5.35,1.35-.88,2.5-2.03,3.39-3.37.88-1.37,1.07-3.08.5-4.61-.39-.76-.88-1.46-1.47-2.08-4.99-5.87-8.63-12.77-10.64-20.21-.97-3.61-1.56-7.34-3.07-10.76-.16-.45-.44-.84-.81-1.14-.67-.33-1.44-.38-2.14-.12-6.08,1.32-12.3,2.72-17.5,6.12-2.98,2.09-5.75,4.45-8.29,7.06-1.75,1.69-3.54,3.35-3.59,5.92-.14,6.4,2.48,13.79,4.49,19.77,1.3,3.89,2.84,7.69,4.59,11.4Z" style="fill: rgb(104, 225, 253);"/><path class="cls-3_adventure-85" d="M169.25,321.3c.48,1.21,1.21,2.3,2.15,3.2,2.2,1.82,5.47,1.27,8.19.4,5.01-1.72,9.89-3.8,14.6-6.23,3.34-1.52,6.54-3.3,9.59-5.35,1.35-.88,2.5-2.02,3.39-3.37.88-1.37,1.07-3.08.5-4.61-.38-.76-.88-1.47-1.47-2.08-4.99-5.87-8.63-12.77-10.64-20.21-.97-3.6-1.57-7.34-3.07-10.76-.16-.45-.44-.84-.81-1.14-.67-.33-1.44-.37-2.14-.12-6.08,1.33-12.3,2.72-17.5,6.12-2.98,2.09-5.75,4.45-8.29,7.06-1.75,1.68-3.54,3.35-3.59,5.91-.14,6.4,2.48,13.79,4.49,19.77,1.3,3.89,2.83,7.69,4.59,11.4Z"/><path class="cls-24_adventure-85 targetColor" d="M165.93,198.38c-1.43,4.66-2.31,9.59-4.96,13.68-2.04,3.14-4.98,5.56-7.77,8.05-5.26,4.69-10.12,9.82-14.52,15.32-1.32,1.62-2.65,3.38-4.47,4.49-1.76.95-3.69,1.52-5.68,1.7-4.88.67-9.84.66-14.72-.06-1.47-.21-3.04-.55-4.06-1.62-.75-1.01-1.21-2.2-1.31-3.46-3.59-22.73,4.06-45.79,20.51-61.88,1.56-1.64,3.42-2.98,5.48-3.93,2.01-.7,4.11-1.09,6.24-1.15,9.6-.75,19.7-1.43,28.39,2.69,1.77.81,6.04,2.6,6.9,4.47,1.05,2.27-1.33,4.23-2.55,6.02-3.26,4.83-5.79,10.13-7.49,15.71Z" style="fill: rgb(104, 225, 253);"/><path class="cls-4_adventure-85" d="M165.93,198.38c-1.43,4.66-2.31,9.59-4.96,13.68-2.04,3.14-4.98,5.56-7.77,8.05-5.26,4.69-10.12,9.82-14.52,15.32-1.32,1.62-2.65,3.38-4.47,4.49-1.76.95-3.69,1.52-5.68,1.7-4.88.67-9.84.66-14.72-.06-1.47-.21-3.04-.55-4.06-1.62-.75-1.01-1.21-2.2-1.31-3.46-3.59-22.73,4.06-45.79,20.51-61.88,1.56-1.64,3.42-2.98,5.48-3.93,2.01-.7,4.11-1.09,6.24-1.15,9.6-.75,19.7-1.43,28.39,2.69,1.77.81,6.04,2.6,6.9,4.47,1.05,2.27-1.33,4.23-2.55,6.02-3.26,4.83-5.79,10.13-7.49,15.71Z"/><path class="cls-24_adventure-85 targetColor" d="M169.11,259.06c-6.21,2.25-11.84,5.85-17.39,9.41-1.23.81-2.53,1.62-3.14,2.99-1.04,2.3.32,4.87,1.48,7.12,2.96,5.79,4.62,12.16,4.87,18.66,4.48-1.37,9.15,2.17,13.79,1.62,1.98-.37,3.87-1.1,5.58-2.17l14.55-7.92c2.61-1.1,4.64-3.24,5.61-5.9,1.48-3.02,2.99-6.31,2.3-9.6-.36-1.35-.9-2.65-1.62-3.85-1.54-2.94-6.18-15.84-9.39-16.29-1.55-.23-6.19,2.66-7.86,3.2-2.9.95-5.84,1.68-8.77,2.73Z" style="fill: rgb(104, 225, 253);"/><path class="cls-11_adventure-85" d="M168.07,259.51c-6.21,2.26-11.83,5.85-17.39,9.42-1.23.81-2.53,1.62-3.14,2.99-1.04,2.3.33,4.87,1.48,7.12,2.96,5.79,4.62,12.16,4.87,18.66,4.49-1.37,9.15,2.17,13.79,1.62,1.98-.36,3.88-1.1,5.58-2.17l14.54-7.91c2.6-1.11,4.63-3.24,5.6-5.9,1.48-3.02,2.99-6.31,2.3-9.6-.36-1.35-.91-2.65-1.62-3.85-1.54-2.94-6.19-15.84-9.39-16.29-1.55-.22-6.19,2.66-7.86,3.2-2.87.94-5.86,1.67-8.75,2.72Z"/><path class="cls-24_adventure-85 targetColor" d="M155.16,311.37c1.44,4.14,2.47,8.41,3.09,12.75.21,1.87.22,3.94-.9,5.46s-3.13,2.12-5.01,2.12c-1.88-.12-3.75-.36-5.6-.74-4.15-.54-8.45.14-12.45-1.08-1.34-.43-2.64-.98-3.89-1.62l-10.72-5.18c-.48-.2-.93-.48-1.33-.81-.48-.48-.85-1.06-1.09-1.7-2.37-5.4-2.99-11.41-1.75-17.18,1.18-5.46,3.98-10.49,4.94-15.99.55-3.17.53-6.55,2.13-9.34.4-.76.99-1.4,1.73-1.84.91-.39,1.9-.57,2.89-.51,3.1-.05.93-4.06,4.06-4.1,2.13,0,10.31.24,12.07,1.62s2.04,8.43,2.77,10.55c2.01,5.81,3.96,11.64,5.87,17.48,1.08,3.38,2.15,6.75,3.21,10.12Z" style="fill: rgb(104, 225, 253);"/><path class="cls-9_adventure-85" d="M155.16,311.37c1.44,4.14,2.47,8.41,3.09,12.75.21,1.87.22,3.94-.9,5.46s-3.13,2.12-5.01,2.12c-1.88-.12-3.75-.36-5.6-.74-4.15-.54-8.45.14-12.45-1.08-1.34-.43-2.64-.98-3.89-1.62l-10.72-5.18c-.48-.2-.93-.48-1.33-.81-.48-.48-.85-1.06-1.09-1.7-2.37-5.4-2.99-11.41-1.75-17.18,1.18-5.46,3.98-10.49,4.94-15.99.55-3.17.53-6.55,2.13-9.34.4-.76.99-1.4,1.73-1.84.91-.39,1.9-.57,2.89-.51,3.1-.05.93-4.06,4.06-4.1,2.13,0,10.31.24,12.07,1.62s2.04,8.43,2.77,10.55c2.01,5.81,3.96,11.64,5.87,17.48,1.08,3.38,2.15,6.75,3.21,10.12Z"/><path class="cls-24_adventure-85 targetColor" d="M297.26,159.23c-1.75,1.29-3.3,2.98-5.38,3.65.94,3.2,4.99,4.56,6.25,7.63.86,2.09.24,4.45-.11,6.68-.88,5.61.04,11.36.96,16.93.23,1.39.6,2.99,1.87,3.59.47.19.97.29,1.47.3,2.73.19,5.61,0,7.95-1.36,3.17-1.89,4.95-5.79,8.41-7.06,1.06-.39,2.34-.58,2.95-1.53.43-.89.47-1.92.11-2.84-1.27-4.87-3.73-9.25-6.21-13.58-1.35-2.52-2.94-4.89-4.75-7.1-2.04-2.21-4.33-4.18-6.82-5.87-2.23-1.62-4.49-1.08-6.7.54Z" style="fill: rgb(104, 225, 253);"/><path class="cls-7_adventure-85" d="M297.26,159.23c-1.75,1.29-3.3,2.98-5.38,3.65.94,3.2,4.99,4.56,6.25,7.63.86,2.09.24,4.45-.11,6.68-.88,5.61.04,11.36.96,16.93.23,1.39.6,2.99,1.87,3.59.47.19.97.29,1.47.3,2.73.19,5.61,0,7.95-1.36,3.17-1.89,4.95-5.79,8.41-7.06,1.06-.39,2.34-.58,2.95-1.53.43-.89.47-1.92.11-2.84-1.27-4.87-3.73-9.25-6.21-13.58-1.35-2.52-2.94-4.89-4.75-7.1-2.04-2.21-4.33-4.18-6.82-5.87-2.23-1.62-4.49-1.08-6.7.54Z"/><path class="cls-24_adventure-85 targetColor" d="M132.87,279.39c-.14,4.01.67,7.97,1.26,11.94,1.16,7.81,1.31,16.38-3.1,22.93-.2.51-.77.77-1.28.57-.07-.03-.14-.06-.21-.11-6.77-2.69-13.42-5.68-19.96-8.96-.74-.29-1.38-.78-1.85-1.41-.35-.74-.49-1.56-.39-2.37l.68-22.86c0-1.46.14-2.91.4-4.35.41-1.92,1.24-3.72,2.43-5.28.65-.96,1.56-1.71,2.62-2.17.99-.28,2.02-.36,3.04-.23,6.91.41,13.79.92,20.72,1.43.79.01,1.56.16,2.3.43,1.91.81,2.71,3.03,3.31,5.01-.66-2.15-5.09-1.83-6.64-1.36-2.54.78-3.26,4.5-3.34,6.8Z" style="fill: rgb(104, 225, 253);"/><path class="cls-24_adventure-85 targetColor" d="M136.28,208.89c-3.81,5.34-7.08,11.18-8.7,17.6-2.13,8.32-1.36,17.08-1.2,25.68.43,26.6-5.01,52.96-15.91,77.23-2.29,5.05-4.92,10.16-9.34,13.49-1.74-1.94-3.53-3.87-5.31-5.81-.3-.28-.54-.62-.73-.98-.14-.22-.23-.45-.28-.71-.02-.8.25-1.58.76-2.19,2.38-3.55,5.62-6.49,7.9-10.09,2.51-4.01,3.69-8.7,4.74-13.3,2.64-11.53,4.51-23.22,6.41-34.88.89-5.52,1.78-11.05,2.29-16.64,1.08-11.78.51-23.69,2.43-35.35,1.62-10.12,5.46-20.51,13.04-27.75,2.48-2.34,6.32-4.19,8.92-2.47,1.1.77,1.87,1.93,2.16,3.24,1.45,4.71-4.69,9.5-7.19,12.93Z" style="fill: rgb(104, 225, 253);"/><path class="cls-6_adventure-85" d="M134.66,206.95c-3.84,5.34-7.11,11.18-8.73,17.56-2.09,8.35-1.36,17.12-1.21,25.72.45,26.6-4.98,52.97-15.91,77.23-2.26,5.05-4.92,10.16-9.3,13.49-1.49-1.62-2.99-3.24-4.41-4.87-.14-.22-.23-.45-.28-.71-.02-.8.25-1.58.76-2.19,2.38-3.55,5.62-6.49,7.9-10.09,2.51-4.01,3.69-8.7,4.74-13.3,2.64-11.53,4.51-23.22,6.41-34.88.89-5.52,1.78-11.05,2.29-16.64,1.08-11.78.51-23.69,2.43-35.35,1.62-10.12,5.46-20.51,13.04-27.75,2.48-2.34,6.32-4.19,8.92-2.47.2.42.37.85.51,1.3,1.44,4.74-4.71,9.53-7.16,12.96Z"/></g><g id="plant_adventure-85"><path class="cls-24_adventure-85 targetColor" d="M401.92,277.42c-.6-17.73,3.24-35.28,7.26-52.56,16.98,15.11,34.3,30.66,45.18,50.57,4.06,7.42,7.16,15.41,12.01,22.31,5.96,8.5,14.33,15.11,20.06,23.76,10.94,16.53,10.21,39.95-1.74,55.76-1.08,1.66-2.59,2.99-4.36,3.88-2.27.95-4.87.49-7.25-.1-20.97-5.21-38.79-20.92-47.35-40.65-9.26-21.33-22.97-38.44-23.8-62.98Z" style="fill: rgb(104, 225, 253);"/><path class="cls-10_adventure-85" d="M401.92,277.42c-.6-17.73,3.24-35.28,7.26-52.56,16.98,15.11,34.3,30.66,45.18,50.57,4.06,7.42,7.16,15.41,12.01,22.31,5.96,8.5,14.33,15.11,20.06,23.76,10.94,16.53,10.21,39.95-1.74,55.76-1.08,1.66-2.59,2.99-4.36,3.88-2.27.95-4.87.49-7.25-.1-20.97-5.21-38.79-20.92-47.35-40.65-9.26-21.33-22.97-38.44-23.8-62.98Z"/><path class="cls-24_adventure-85 targetColor" d="M401.8,279.05c-3.15,0-6.42.24-9.3-1.04-2.43-1.07-4.21-3.07-6.12-4.87-7.22-6.69-16.46-10.79-26.27-11.63-7.62-.64-15.25.73-22.9,1.05-15.4.65-30.69-2.9-44.23-10.29,2.83,21.45,15.58,40.31,34.42,50.94,4.61,2.55,9.73,4.77,12.65,9.18,5.4,8.27.58,20.71,6.85,28.33,2.37,2.87,5.91,4.47,8.77,6.85,7.3,6.14,9.16,16.46,13.43,25,8.21,16.39,25.33,26.01,41.49,34.66,5.88,3.16,11.88,6.34,18.46,7.52,6.26,1.12,12.75.32,18.89-1.36,24.59-6.74,45.03-31.98,39.64-56.9-4.11-18.98-21.64-32.66-32.94-47.56-12.96-17.12-30.49-29.96-52.83-29.89Z" style="fill: rgb(104, 225, 253);"/><path class="cls-8_adventure-85" d="M401.8,279.05c-3.15,0-6.42.24-9.3-1.04-2.43-1.07-4.21-3.07-6.12-4.87-7.22-6.69-16.46-10.79-26.27-11.63-7.62-.64-15.25.73-22.9,1.05-15.4.65-30.69-2.9-44.23-10.29,2.83,21.45,15.58,40.31,34.42,50.94,4.61,2.55,9.73,4.77,12.65,9.18,5.4,8.27.58,20.71,6.85,28.33,2.37,2.87,5.91,4.47,8.77,6.85,7.3,6.14,9.16,16.46,13.43,25,8.21,16.39,25.33,26.01,41.49,34.66,5.88,3.16,11.88,6.34,18.46,7.52,6.26,1.12,12.75.32,18.89-1.36,24.59-6.74,45.03-31.98,39.64-56.9-4.11-18.98-21.64-32.66-32.94-47.56-12.96-17.12-30.49-29.96-52.83-29.89Z"/><path class="cls-24_adventure-85 targetColor" d="M71.95,282.38c-2.6,10-3.39,20.39-2.32,30.67.92,8.8,3.2,17.67,1.7,26.4-1.17,6.83-4.58,13.04-7.93,19.11l-14.72,26.62c-11.66-17.19-30.23-39.33-21.68-60.66,3.94-9.85,10.99-18.97,18.72-26.14,3.54-3.27,25.72-14,26.24-16Z" style="fill: rgb(104, 225, 253);"/><path class="cls-12_adventure-85" d="M71.95,282.38c-2.6,10-3.39,20.39-2.32,30.67.92,8.8,3.2,17.67,1.7,26.4-1.17,6.83-4.58,13.04-7.93,19.11l-14.72,26.62c-11.66-17.19-30.23-39.33-21.68-60.66,3.94-9.85,10.99-18.97,18.72-26.14,3.54-3.27,25.72-14,26.24-16Z"/></g></svg>